<svg aria-hidden="true" style="position: absolute; width: 0; height: 0; overflow: hidden;" version="1.1" xmlns="http://www.w3.org/2000/svg" xmlns:xlink="http://www.w3.org/1999/xlink">
<defs>
<symbol id="icon-Coin" viewBox="0 0 32 32">
<path fill="#fd9222" style="fill: var(--color1, #fd9222)" d="M16 2.667c-7.333 0-13.333 6-13.333 13.333s6 13.333 13.333 13.333 13.333-6 13.333-13.333-6-13.333-13.333-13.333zM16 26.667c-5.867 0-10.667-4.8-10.667-10.667s4.8-10.667 10.667-10.667 10.667 4.8 10.667 10.667-4.8 10.667-10.667 10.667z"></path>
<path fill="#fd9222" style="fill: var(--color1, #fd9222)" d="M17.733 14.667h-3.467c-0.667 0-1.2-0.533-1.2-1.2s0.533-1.2 1.2-1.2h4.933c0.8 0 1.333-0.533 1.333-1.333s-0.533-1.333-1.333-1.333h-1.867v-1.2c0-0.8-0.533-1.333-1.333-1.333s-1.333 0.533-1.333 1.333v1.2h-0.4c-2.133 0-3.867 1.733-3.867 3.867s1.733 3.867 3.867 3.867h3.333c0.667 0 1.2 0.533 1.2 1.2s-0.533 1.2-1.2 1.2h-4.933c-0.8 0-1.333 0.533-1.333 1.333s0.533 1.333 1.333 1.333h2v1.2c0 0.8 0.533 1.333 1.333 1.333s1.333-0.533 1.333-1.333v-1.2h0.4c2.133 0 3.867-1.733 3.867-3.867s-1.733-3.867-3.867-3.867z"></path>
</symbol>
<symbol id="icon-fi-rr-angle-small-left" viewBox="0 0 32 32">
<path fill="#fd9222" style="fill: var(--color1, #fd9222)" d="M16.947 17.867c-0.242 0.244-0.577 0.394-0.947 0.394s-0.705-0.151-0.947-0.394l-0-0-6.107-6.12c-0.242-0.244-0.577-0.394-0.947-0.394-0.737 0-1.334 0.597-1.334 1.334 0 0.367 0.148 0.699 0.387 0.94l6.12 6.12c0.724 0.723 1.723 1.17 2.827 1.17s2.103-0.447 2.827-1.17l6.12-6.12c0.238-0.241 0.385-0.573 0.385-0.939 0-0.552-0.334-1.025-0.811-1.229l-0.009-0.003c-0.152-0.065-0.328-0.103-0.514-0.103-0.37 0-0.705 0.151-0.946 0.395l-0 0-6.107 6.12z"></path>
</symbol>
<symbol id="icon-fluent-emoji-high-contrast_chocolate-bar" viewBox="0 0 32 32">
<path fill="#000" style="fill: var(--color2, #000)" d="M13.822 2.413l7.527 7.536 0.080-0.080c0.154-0.151 0.366-0.244 0.599-0.244 0.227 0 0.433 0.088 0.586 0.232l-0-0 0.873 0.873c0.305 0.305 0.315 0.77 0.083 1.094l-0.004 0.007-0.143 0.192 6.16 6.16c0.55 0.55 0.55 1.43 0 1.98l-9.43 9.43c-0.55 0.55-1.43 0.55-1.98 0l-4.447-4.447c-0.147 0.182-0.364 0.301-0.61 0.317l-0.002 0c-0.014 0.001-0.031 0.001-0.048 0.001-0.233 0-0.444-0.095-0.596-0.247l-2.6-2.6c-0.151-0.154-0.244-0.366-0.244-0.599 0-0.227 0.088-0.433 0.232-0.586l-0 0 0.006-0.007 0.077-0.076-7.527-7.527c-0.55-0.55-0.55-1.43 0-1.98l9.43-9.43c0.55-0.55 1.43-0.55 1.98 0v0.001zM20.404 10.893l-1.756-1.755c-0.108-0.111-0.258-0.181-0.425-0.181s-0.317 0.069-0.425 0.181l-3.58 3.58c-0.109 0.111-0.177 0.262-0.179 0.43v0c0 0.001 0 0.001 0 0.002 0 0.168 0.068 0.319 0.179 0.428l1.749 1.749 0.61-0.61-1.565-1.565 3.21-3.22 1.569 1.574 0.613-0.613zM15.328 15.965l-1.754-1.754c-0.107-0.111-0.258-0.181-0.425-0.181s-0.318 0.069-0.425 0.181l-3.59 3.59c-0.24 0.23-0.24 0.61 0 0.85l1.752 1.752 0.616-0.616-1.57-1.564 3.22-3.21 1.564 1.563 0.612-0.611zM8.822 8.193l3.58 3.58c0.24 0.24 0.62 0.24 0.85-0.010l3.58-3.58c0.111-0.104 0.18-0.252 0.18-0.416 0-0.002 0-0.003-0-0.005v0h0.010c0-0.15-0.060-0.31-0.18-0.43l-3.58-3.58c-0.109-0.112-0.262-0.181-0.43-0.181s-0.321 0.069-0.43 0.181l-0 0-3.58 3.59c-0.24 0.23-0.24 0.61 0 0.85zM3.752 13.263l3.58 3.58c0.24 0.24 0.62 0.24 0.85 0l3.58-3.58c0.111-0.106 0.18-0.254 0.18-0.419 0-0.004-0-0.008-0-0.011v0.001h0.010c0-0.16-0.060-0.31-0.18-0.43l-3.58-3.58c-0.107-0.111-0.258-0.181-0.425-0.181s-0.317 0.069-0.425 0.181l-3.59 3.59c-0.24 0.23-0.24 0.61 0 0.85zM10.685 22.017l2.362 2.363 9.636-13.040-0.655-0.655-11.343 11.332z"></path>
<path fill="#fd9222" style="fill: var(--color1, #fd9222)" d="M13.822 2.413l7.527 7.536 0.080-0.080c0.154-0.151 0.366-0.244 0.599-0.244 0.227 0 0.433 0.088 0.586 0.232l-0-0 0.873 0.873c0.305 0.305 0.315 0.77 0.083 1.094l-0.004 0.007-0.143 0.192 6.16 6.16c0.55 0.55 0.55 1.43 0 1.98l-9.43 9.43c-0.55 0.55-1.43 0.55-1.98 0l-4.447-4.447c-0.147 0.182-0.364 0.301-0.61 0.317l-0.002 0c-0.014 0.001-0.031 0.001-0.048 0.001-0.233 0-0.444-0.095-0.596-0.247l-2.6-2.6c-0.151-0.154-0.244-0.366-0.244-0.599 0-0.227 0.088-0.433 0.232-0.586l-0 0 0.006-0.007 0.077-0.076-7.527-7.527c-0.55-0.55-0.55-1.43 0-1.98l9.43-9.43c0.55-0.55 1.43-0.55 1.98 0v0.001zM20.404 10.893l-1.756-1.755c-0.108-0.111-0.258-0.181-0.425-0.181s-0.317 0.069-0.425 0.181l-3.58 3.58c-0.109 0.111-0.177 0.262-0.179 0.43v0c0 0.001 0 0.001 0 0.002 0 0.168 0.068 0.319 0.179 0.428l1.749 1.749 0.61-0.61-1.565-1.565 3.21-3.22 1.569 1.574 0.613-0.613zM15.328 15.965l-1.754-1.754c-0.107-0.111-0.258-0.181-0.425-0.181s-0.318 0.069-0.425 0.181l-3.59 3.59c-0.24 0.23-0.24 0.61 0 0.85l1.752 1.752 0.616-0.616-1.57-1.564 3.22-3.21 1.564 1.563 0.612-0.611zM8.822 8.193l3.58 3.58c0.24 0.24 0.62 0.24 0.85-0.010l3.58-3.58c0.111-0.104 0.18-0.252 0.18-0.416 0-0.002 0-0.003-0-0.005v0h0.010c0-0.15-0.060-0.31-0.18-0.43l-3.58-3.58c-0.109-0.112-0.262-0.181-0.43-0.181s-0.321 0.069-0.43 0.181l-0 0-3.58 3.59c-0.24 0.23-0.24 0.61 0 0.85zM3.752 13.263l3.58 3.58c0.24 0.24 0.62 0.24 0.85 0l3.58-3.58c0.111-0.106 0.18-0.254 0.18-0.419 0-0.004-0-0.008-0-0.011v0.001h0.010c0-0.16-0.060-0.31-0.18-0.43l-3.58-3.58c-0.107-0.111-0.258-0.181-0.425-0.181s-0.317 0.069-0.425 0.181l-3.59 3.59c-0.24 0.23-0.24 0.61 0 0.85zM10.685 22.017l2.362 2.363 9.636-13.040-0.655-0.655-11.343 11.332z"></path>
</symbol>
<symbol id="icon-checkbox" viewBox="0 0 32 32">
<path fill="#fff" style="fill: var(--color3, #fff)" d="M12.636 31.213c1.395 0 2.449-0.536 3.163-1.607l15.448-23.28c0.257-0.379 0.446-0.753 0.569-1.121 0.123-0.379 0.184-0.742 0.184-1.088 0-0.96-0.335-1.752-1.004-2.377-0.658-0.636-1.473-0.954-2.444-0.954-0.669 0-1.238 0.134-1.707 0.402-0.457 0.257-0.893 0.703-1.305 1.339l-12.971 20.368-6.494-7.782c-0.703-0.815-1.584-1.222-2.644-1.222-0.993 0-1.813 0.318-2.46 0.954s-0.971 1.434-0.971 2.393c0 0.435 0.067 0.848 0.201 1.238 0.145 0.379 0.407 0.775 0.787 1.188l8.619 10.159c0.792 0.926 1.802 1.389 3.029 1.389z"></path>
</symbol>
<symbol id="icon-instagram" viewBox="0 0 32 32">
<path stroke-linejoin="round" stroke-linecap="round" stroke-miterlimit="4" stroke-width="2.667" d="M22.667 2.667h-13.333c-3.682 0-6.667 2.985-6.667 6.667v0 13.333c0 3.682 2.985 6.667 6.667 6.667v0h13.333c3.682 0 6.667-2.985 6.667-6.667v0-13.333c0-3.682-2.985-6.667-6.667-6.667v0z"></path>
<path stroke-linejoin="round" stroke-linecap="round" stroke-miterlimit="4" stroke-width="2.667" d="M21.333 15.16c0.037 0.236 0.058 0.508 0.058 0.784 0 2.071-1.181 3.865-2.906 4.748l-0.030 0.014c-0.698 0.359-1.523 0.569-2.398 0.569-1.473 0-2.806-0.596-3.772-1.561l0 0c-0.966-0.965-1.564-2.298-1.564-3.772 0-2.049 1.156-3.827 2.851-4.719l0.029-0.014c0.713-0.377 1.559-0.599 2.457-0.599 1.473 0 2.806 0.597 3.771 1.561l-0-0c0.784 0.784 1.325 1.812 1.5 2.959l0.004 0.030zM23.333 8.667h0.013"></path>
</symbol>
<symbol id="icon-la_utensil-spoon" viewBox="0 0 32 32">
<path fill="#fd9222" style="fill: var(--color1, #fd9222)" d="M15.451 14.106c-0.733-0.884-1.177-2.029-1.177-3.278 0-0.001 0-0.003 0-0.004v0c0-4.324 5.181-8.642 10.362-8.642 2.861 0.001 5.18 2.321 5.181 5.182v0c0 5.182-4.318 10.364-8.646 10.364-0.001 0-0.002 0-0.004 0-1.249 0-2.394-0.444-3.286-1.184l0.009 0.007-12.758 12.761c-0.308 0.287-0.723 0.463-1.178 0.463-0.955 0-1.73-0.775-1.73-1.73 0-0.456 0.176-0.87 0.464-1.179l-0.001 0.001 12.764-12.761z"></path>
</symbol>
<symbol id="icon-mail" viewBox="0 0 32 32">
<path stroke-linejoin="round" stroke-linecap="round" stroke-miterlimit="4" stroke-width="2.667" d="M5.333 5.333h21.333c1.467 0 2.667 1.2 2.667 2.667v16c0 1.467-1.2 2.667-2.667 2.667h-21.333c-1.471-0.005-2.662-1.196-2.667-2.667v-16c0-1.467 1.2-2.667 2.667-2.667z"></path>
<path stroke-linejoin="round" stroke-linecap="round" stroke-miterlimit="4" stroke-width="2.667" d="M29.333 8l-13.333 9.333-13.333-9.333"></path>
</symbol>
<symbol id="icon-phone" viewBox="0 0 32 32">
<path stroke-linejoin="round" stroke-linecap="round" stroke-miterlimit="4" stroke-width="2.667" d="M29.333 22.56v4c0 0.006 0 0.013 0 0.019 0 1.165-0.75 2.154-1.793 2.512l-0.019 0.006c-0.255 0.089-0.549 0.141-0.856 0.141-0.084 0-0.167-0.004-0.249-0.011l0.011 0.001c-4.327-0.483-8.236-1.943-11.607-4.155l0.1 0.062c-3.242-2.081-5.919-4.758-7.938-7.897l-0.062-0.103c-2.158-3.286-3.62-7.214-4.083-11.442l-0.010-0.118c-0.007-0.073-0.011-0.157-0.011-0.243 0-0.693 0.265-1.324 0.7-1.797l-0.002 0.002c0.489-0.534 1.189-0.868 1.967-0.868h4c0.007-0 0.015-0 0.024-0 1.342 0 2.453 0.99 2.642 2.28l0.002 0.014c0.188 1.4 0.515 2.665 0.972 3.865l-0.039-0.118c0.107 0.278 0.169 0.6 0.169 0.937 0 0.732-0.294 1.395-0.77 1.878l-1.693 1.693c1.932 3.356 4.644 6.068 7.897 7.945l0.103 0.055 1.693-1.693c0.362-0.359 0.82-0.606 1.319-0.712s1.017-0.067 1.495 0.112c1.21 0.451 2.467 0.765 3.747 0.933 1.304 0.189 2.294 1.298 2.294 2.639 0 0.024-0 0.048-0.001 0.071l0-0.003z"></path>
</symbol>
<symbol id="icon-twitter" viewBox="0 0 32 32">
<path stroke-linejoin="round" stroke-linecap="round" stroke-miterlimit="4" stroke-width="2.667" d="M30.667 4c-1.2 0.856-2.591 1.551-4.084 2.013l-0.103 0.027c-1.101-1.261-2.712-2.053-4.508-2.053-0.765 0-1.497 0.144-2.17 0.406l0.041-0.014c-2.267 0.885-3.843 3.051-3.843 5.586 0 0.026 0 0.053 0 0.079l-0-0.004v1.333c-2.343 0.061-4.665-0.459-6.759-1.513s-4.561-3.563-5.908-5.481c0 0-4.667 12.954 7.333 18.287-2.442 1.678-5.462 2.679-8.717 2.679-0.217 0-0.432-0.004-0.647-0.013l0.031 0.001c12 6.667 26.667 0 26.667-15.333-0.001-0.392-0.040-0.775-0.113-1.145l0.006 0.038c1.323-1.305 2.293-2.963 2.758-4.822l0.015-0.071z"></path>
</symbol>
<symbol id="icon-user" viewBox="0 0 32 32">
<path fill="none" stroke="#fd9222" style="stroke: var(--color1, #fd9222)" stroke-linejoin="round" stroke-linecap="round" stroke-miterlimit="4" stroke-width="2.667" d="M26.667 28v-2.667c0-0 0-0.001 0-0.001 0-2.945-2.387-5.332-5.332-5.332-0 0-0.001 0-0.001 0h-10.667c-0 0-0.001 0-0.001 0-2.945 0-5.332 2.387-5.332 5.332 0 0 0 0.001 0 0.001v-0 2.667M16 14.667c2.946 0 5.334-2.388 5.334-5.333s-2.388-5.333-5.334-5.333v0c-2.946 0-5.334 2.388-5.334 5.333s2.388 5.334 5.334 5.334v0z"></path>
</symbol>
</defs>
</svg>
